<svg xmlns="http://www.w3.org/2000/svg" viewBox="0 0 188.7 600.7">
  <path d="M176.4,535.1c-1.8,0-3.4,1.2-3.9,2.9H146l-4.5-5.8H75.2l-16.5-16.5l-7.1-7.1v-4.8l8.3-8.3v-54.4l-8.3-8.3v-36.1L74.9,420 v44.7c-1.8,0.4-3.1,2.1-3.1,4c0,2.3,1.8,4.1,4.1,4.1s4.1-1.8,4.1-4.1c0-1.9-1.3-3.5-3.1-4v-18l24,24v37.4l9.8,9.8H139v-2h-27.5 l-8.6-8.6v-20.5l11,11h19.4v-2h-18.6L102.9,484v-14L90,457h10l12.3,12.3c-0.5,0.7-0.8,1.5-0.8,2.4c0,2.3,1.8,4.1,4.1,4.1 s4.1-1.8,4.1-4.1s-1.8-4.1-4.1-4.1c-0.6,0-1.2,0.2-1.8,0.4l-13-13H88l-11.1-11.1v-6.6h21l0.3,0.3v0.2h0.2l15,15 c-0.4,0.6-0.7,1.4-0.7,2.3c0,2.3,1.8,4.1,4.1,4.1s4.1-1.8,4.1-4.1s-1.8-4.1-4.1-4.1c-0.7,0-1.4,0.2-1.9,0.5l-14.7-14.7l0-60.5 l-8.3-8.3h19.3l28.9,28.9c-0.5,0.7-0.8,1.5-0.8,2.4c0,2.3,1.8,4.1,4.1,4.1s4.1-1.8,4.1-4.1s-1.8-4.1-4.1-4.1c-0.7,0-1.3,0.2-1.8,0.4 L112,366H89.9l-6.2-6.2h39l7.1,7.1c-0.5,0.7-0.8,1.5-0.8,2.4c0,2.3,1.8,4.1,4.1,4.1s4.1-1.8,4.1-4.1s-1.8-4.1-4.1-4.1 c-0.6,0-1.2,0.2-1.7,0.4l-7.9-7.9H93.9l7.7-7.7l1.7-1.7h37.4c0.4,0.7,1,1.3,1.8,1.7c0.5,0.3,1.1,0.4,1.8,0.4s1.2-0.2,1.8-0.4 c1.4-0.7,2.3-2.1,2.3-3.7c0-2.3-1.8-4.1-4.1-4.1s-4.1,1.8-4.1,4.1h-37.7l-3.7,3.7l-7.7,7.7h-9.3l-7.7-7.7l-5.7-5.7l14.9-14.9V182.5 l0.5,0.5l13-13v-7.1l19.8-19.8H134c0.4,1.8,2.1,3.1,4,3.1c2.3,0,4.1-1.8,4.1-4.1s-1.8-4.1-4.1-4.1c-1.9,0-3.5,1.3-4,3.1h-18.2 L96.9,160v-16.6l18.3-18.3h25c0.4,1.8,2.1,3.1,4,3.1c2.3,0,4.1-1.8,4.1-4.1s-1.8-4.1-4.1-4.1c-1.9,0-3.5,1.3-4,3.1h-25.9l-17.5,17.5 V110c1.8-0.4,3.1-2.1,3.1-4c0-2.3-1.8-4.1-4.1-4.1s-4.1,1.8-4.1,4.1c0,1.9,1.3,3.5,3.1,4v59.2l-11.5,11.5V94.1L100,79.7L116.3,96 h12.8c0.4,1.8,2.1,3.1,4,3.1c2.3,0,4.1-1.8,4.1-4.1s-1.8-4.1-4.1-4.1c-1.9,0-3.5,1.3-4,3.1h-12l-14.7-14.7h29.1l4.4-4.4l-1.4-1.4 l-3.8,3.8H99.6L81.3,93.2V263l-18.9-20.2v-13l7.9-5.6v-49.5c1.8-0.4,3.1-2.1,3.1-4c0-2.3-1.8-4.1-4.1-4.1s-4.1,1.8-4.1,4.1 c0,1.9,1.3,3.5,3.1,4V223l-5.9,4.2v-83.5c1.7-0.5,2.9-2.1,2.9-3.9c0-2.3-1.8-4.1-4.1-4.1s-4.1,1.8-4.1,4.1c0,2,1.4,3.7,3.3,4v60.3 l-9.2-9.2V124l0.1,0.1l9.5-9.5V82.8l18.9-18.9c0.6,0.3,1.3,0.5,2,0.5c2.3,0,4.1-1.8,4.1-4.1s-1.8-4.1-4.1-4.1s-4.1,1.8-4.1,4.1 c0,0.8,0.2,1.6,0.7,2.2L58.9,82v31.8l-7.6,7.6V96.9c1.8-0.4,3.1-2.1,3.1-4c0-2.3-1.8-4.1-4.1-4.1s-4.1,1.8-4.1,4.1 c0,1.9,1.3,3.5,3.1,4V196l11.2,11.2v33.5L31.8,210V96.4l6.2-6.2V48.7l10.4-10.4c0.6,0.3,1.3,0.5,2,0.5c2.3,0,4.1-1.8,4.1-4.1 s-1.8-4.1-4.1-4.1s-4.1,1.8-4.1,4.1c0,0.8,0.2,1.6,0.7,2.2l-9,9V17.1c1.8-0.4,3.1-2.1,3.1-4c0-2.3-1.8-4.1-4.1-4.1s-4.1,1.8-4.1,4.1 c0,1.9,1.3,3.5,3.1,4v72.4l-4.2,4.2V33.9c1.8-0.5,3.1-2.1,3.1-4c0-2.3-1.8-4.1-4.1-4.1s-4.1,1.8-4.1,4.1c0,1.9,1.3,3.5,3.1,4v176.9 l33.1,35.4H49.2l-10.7-10.7c0.4-0.6,0.6-1.3,0.6-2.1c0-2.3-1.8-4.1-4.1-4.1s-4.1,1.8-4.1,4.1s1.8,4.1,4.1,4.1c0.8,0,1.5-0.2,2.1-0.6 l11.3,11.3h16.3l6.7,7.2H43l-17.2-17.2c0.7-0.7,1.1-1.7,1.1-2.8c0-2.3-1.8-4.1-4.1-4.1s-4.1,1.8-4.1,4.1s1.8,4.1,4.1,4.1 c0.4,0,0.9-0.1,1.3-0.2l18.1,18.1h31.1l8,8.6v47.5L44.7,350l-5.2,5.2V386l-11.8,11.8v50.8l11.8,11.8V570c-1.8,0.4-3.1,2.1-3.1,4 c0,2.3,1.8,4.1,4.1,4.1s4.1-1.8,4.1-4.1c0-1.9-1.3-3.5-3.1-4v-31.5l5.9,5.9v42.4c-1.8,0.5-3.1,2.1-3.1,4c0,2.3,1.8,4.1,4.1,4.1 s4.1-1.8,4.1-4.1c0-1.9-1.3-3.5-3.1-4v-43.2l-7.9-7.9v-75.4l0.3-0.3l-0.3-0.3V356.1l6.1-6.1l33.8-33.8v12.4L59.9,350l-10.3,10.3 v149.2l7.1,7.1v36.2l19.7,19.7H117c0.4,1.8,2.1,3.1,4,3.1c2.3,0,4.1-1.8,4.1-4.1s-1.8-4.1-4.1-4.1c-1.9,0-3.5,1.3-4,3.1H92.7 l16.5-16.5h5.3l10.2,10.2h41.5c0.5,1.6,2.1,2.9,3.9,2.9c2.3,0,4.1-1.8,4.1-4.1s-1.8-4.1-4.1-4.1c-2,0-3.7,1.5-4,3.4h-40.6l-8.2-8.2 h23.8c0.4,1.8,2.1,3.1,4,3.1c2.3,0,4.1-1.8,4.1-4.1s-1.8-4.1-4.1-4.1c-1.9,0-3.5,1.3-4,3.1h-32.8l-18.5,18.5H77.3l-18.5-18.5v-33.4 l15.6,15.6h12.8l5.8,5.8h79.3c0.4,1.9,2,3.3,4,3.3c2.3,0,4.1-1.8,4.1-4.1S178.6,535.1,176.4,535.1L176.4,535.1z M117.9,471.8 c0,1.2-0.9,2.1-2.1,2.1s-2.1-0.9-2.1-2.1s0.9-2.1,2.1-2.1S117.9,470.6,117.9,471.8z M145.6,399.1c0,1.2-0.9,2.1-2.1,2.1 s-2.1-0.9-2.1-2.1s0.9-2.1,2.1-2.1S145.6,397.9,145.6,399.1z M135.3,369.2c0,1.2-0.9,2.1-2.1,2.1s-2.1-0.9-2.1-2.1s0.9-2.1,2.1-2.1 S135.3,368.1,135.3,369.2z M144.2,344.2c1.2,0,2.1,0.9,2.1,2.1s-0.9,2.1-2.1,2.1s-2.1-0.9-2.1-2.1S143.1,344.2,144.2,344.2z  M138,140c1.2,0,2.1,0.9,2.1,2.1s-0.9,2.1-2.1,2.1s-2.1-0.9-2.1-2.1S136.8,140,138,140z M144.2,122c1.2,0,2.1,0.9,2.1,2.1 s-0.9,2.1-2.1,2.1s-2.1-0.9-2.1-2.1S143,122,144.2,122z M93.8,106c0-1.2,0.9-2.1,2.1-2.1s2.1,0.9,2.1,2.1s-0.9,2.1-2.1,2.1 S93.8,107.2,93.8,106z M133,92.9c1.2,0,2.1,0.9,2.1,2.1s-0.9,2.1-2.1,2.1s-2.1-0.9-2.1-2.1S131.9,92.9,133,92.9z M67.2,170.6 c0-1.2,0.9-2.1,2.1-2.1s2.1,0.9,2.1,2.1s-0.9,2.1-2.1,2.1S67.2,171.7,67.2,170.6z M81.7,58.2c1.2,0,2.1,0.9,2.1,2.1 s-0.9,2.1-2.1,2.1s-2.1-0.9-2.1-2.1S80.6,58.2,81.7,58.2z M48.1,92.9c0-1.2,0.9-2.1,2.1-2.1s2.1,0.9,2.1,2.1S51.4,95,50.2,95 S48.1,94.1,48.1,92.9z M59.1,139.9c0-1.2,0.9-2.1,2.1-2.1s2.1,0.9,2.1,2.1s-0.9,2.1-2.1,2.1S59.1,141.1,59.1,139.9z M50.2,32.6 c1.2,0,2.1,0.9,2.1,2.1s-0.9,2.1-2.1,2.1s-2.1-0.9-2.1-2.1S49.1,32.6,50.2,32.6z M34.7,13.1c0-1.2,0.9-2.1,2.1-2.1s2.1,0.9,2.1,2.1 s-0.9,2.1-2.1,2.1S34.7,14.3,34.7,13.1z M28.5,29.9c0-1.2,0.9-2.1,2.1-2.1s2.1,0.9,2.1,2.1S31.8,32,30.6,32S28.5,31.1,28.5,29.9z  M33,233.3c0-1.2,0.9-2.1,2.1-2.1s2.1,0.9,2.1,2.1s-0.9,2.1-2.1,2.1S33,234.5,33,233.3z M20.7,235.3c0-1.2,0.9-2.1,2.1-2.1 s2.1,0.9,2.1,2.1s-0.9,2.1-2.1,2.1S20.7,236.5,20.7,235.3z M50.5,590.8c0,1.2-0.9,2.1-2.1,2.1s-2.1-0.9-2.1-2.1s0.9-2.1,2.1-2.1 S50.5,589.6,50.5,590.8z M42.6,573.9c0,1.2-0.9,2.1-2.1,2.1s-2.1-0.9-2.1-2.1s0.9-2.1,2.1-2.1S42.6,572.8,42.6,573.9z M29.6,447.9 v-49.2l9.8-9.8v68.8L29.6,447.9z M170.1,560.7c1.2,0,2.1,0.9,2.1,2.1s-0.9,2.1-2.1,2.1s-2.1-0.9-2.1-2.1S169,560.7,170.1,560.7z  M145.2,550.8c1.2,0,2.1,0.9,2.1,2.1s-0.9,2.1-2.1,2.1s-2.1-0.9-2.1-2.1S144,550.8,145.2,550.8z M121,569.3c1.2,0,2.1,0.9,2.1,2.1 s-0.9,2.1-2.1,2.1s-2.1-0.9-2.1-2.1S119.9,569.3,121,569.3z M58,442v52.7l-6.3,6.3v-65.3L58,442z M78,468.7c0,1.2-0.9,2.1-2.1,2.1 s-2.1-0.9-2.1-2.1s0.9-2.1,2.1-2.1S78,467.5,78,468.7z M119,455.1c0,1.2-0.9,2.1-2.1,2.1s-2.1-0.9-2.1-2.1s0.9-2.1,2.1-2.1 S119,453.9,119,455.1z M62.7,350l4.3-4.3l4.3,4.3l27,27v58.3H76.9v-16.2l-25.3-25.3V361C51.6,361,62.7,350,62.7,350z M90,534.2h50.5 l3,3.8H93.9L90,534.2z M176.4,541.3c-1.2,0-2.1-0.9-2.1-2.1s0.9-2.1,2.1-2.1s2.1,0.9,2.1,2.1S177.5,541.3,176.4,541.3z"/>
</svg>
