<svg xmlns="http://www.w3.org/2000/svg" viewBox="0 0 188.7 600.7">
  <path d="M176.4 535.1c-1.8 0-3.4 1.2-3.9 2.9H146l-4.5-5.8H75.2l-16.5-16.5-7.1-7.1v-4.8l8.3-8.3v-54.4l-8.3-8.3v-36.1L74.9 420v44.7c-1.8.4-3.1 2.1-3.1 4 0 2.3 1.8 4.1 4.1 4.1s4.1-1.8 4.1-4.1c0-1.9-1.3-3.5-3.1-4v-18l24 24v37.4l9.8 9.8H139v-2h-27.5l-8.6-8.6v-20.5l11 11h19.4v-2h-18.6L102.9 484v-14L90 457h10l12.3 12.3c-.5.7-.8 1.5-.8 2.4 0 2.3 1.8 4.1 4.1 4.1s4.1-1.8 4.1-4.1-1.8-4.1-4.1-4.1c-.6 0-1.2.2-1.8.4l-13-13H88l-11.1-11.1v-6.6h21l.3.3v.2h.2l15 15c-.4.6-.7 1.4-.7 2.3 0 2.3 1.8 4.1 4.1 4.1s4.1-1.8 4.1-4.1-1.8-4.1-4.1-4.1c-.7 0-1.4.2-1.9.5l-14.7-14.7v-51.7l9.9 9.9v.2h.2L125 410v23.3h2v-24.1l-13.8-13.8h8.7l21.7 21.7 1.4-1.4-22.2-22.2h-11.6l-11-11v-6.2l-8.3-8.3h19.3l28.9 28.9c-.5.7-.8 1.5-.8 2.4 0 2.3 1.8 4.1 4.1 4.1s4.1-1.8 4.1-4.1-1.8-4.1-4.1-4.1c-.7 0-1.3.2-1.8.4L112 366H89.9l-6.2-6.2h39l7.1 7.1c-.5.7-.8 1.5-.8 2.4 0 2.3 1.8 4.1 4.1 4.1s4.1-1.8 4.1-4.1-1.8-4.1-4.1-4.1c-.6 0-1.2.2-1.7.4l-7.9-7.9H93.9l7.7-7.7 1.7-1.7h37.4c.4.7 1 1.3 1.8 1.7.5.3 1.1.4 1.8.4s1.2-.2 1.8-.4c1.4-.7 2.3-2.1 2.3-3.7 0-2.3-1.8-4.1-4.1-4.1s-4.1 1.8-4.1 4.1h-37.7l-3.7 3.7-7.7 7.7h-9.3l-7.7-7.7-5.7-5.7 14.9-14.9V182.5l.5.5 13-13v-7.1l19.8-19.8H134c.4 1.8 2.1 3.1 4 3.1 2.3 0 4.1-1.8 4.1-4.1s-1.8-4.1-4.1-4.1c-1.9 0-3.5 1.3-4 3.1h-18.2L96.9 160v-16.6l18.3-18.3h25c.4 1.8 2.1 3.1 4 3.1 2.3 0 4.1-1.8 4.1-4.1s-1.8-4.1-4.1-4.1c-1.9 0-3.5 1.3-4 3.1h-25.9l-17.5 17.5V110c1.8-.4 3.1-2.1 3.1-4 0-2.3-1.8-4.1-4.1-4.1s-4.1 1.8-4.1 4.1c0 1.9 1.3 3.5 3.1 4v59.2l-11.5 11.5V94.1L100 79.7 116.3 96h12.8c.4 1.8 2.1 3.1 4 3.1 2.3 0 4.1-1.8 4.1-4.1s-1.8-4.1-4.1-4.1c-1.9 0-3.5 1.3-4 3.1h-12l-14.7-14.7h29.1l4.4-4.4-1.4-1.4-3.8 3.8H99.6L81.3 93.2V263l-18.9-20.2v-13l7.9-5.6v-49.5c1.8-.4 3.1-2.1 3.1-4 0-2.3-1.8-4.1-4.1-4.1s-4.1 1.8-4.1 4.1c0 1.9 1.3 3.5 3.1 4V223l-5.9 4.2v-83.5c1.7-.5 2.9-2.1 2.9-3.9 0-2.3-1.8-4.1-4.1-4.1s-4.1 1.8-4.1 4.1c0 2 1.4 3.7 3.3 4v60.3l-9.2-9.2V124l.1.1 9.5-9.5V82.8l18.9-18.9c.6.3 1.3.5 2 .5 2.3 0 4.1-1.8 4.1-4.1s-1.8-4.1-4.1-4.1-4.1 1.8-4.1 4.1c0 .8.2 1.6.7 2.2L58.9 82v31.8l-7.6 7.6V96.9c1.8-.4 3.1-2.1 3.1-4 0-2.3-1.8-4.1-4.1-4.1s-4.1 1.8-4.1 4.1c0 1.9 1.3 3.5 3.1 4V196l11.2 11.2v33.5L31.8 210V96.4l6.2-6.2V48.7l10.4-10.4c.6.3 1.3.5 2 .5 2.3 0 4.1-1.8 4.1-4.1s-1.8-4.1-4.1-4.1-4.1 1.8-4.1 4.1c0 .8.2 1.6.7 2.2l-9 9V17.1c1.8-.4 3.1-2.1 3.1-4 0-2.3-1.8-4.1-4.1-4.1s-4.1 1.8-4.1 4.1c0 1.9 1.3 3.5 3.1 4v72.4l-4.2 4.2V33.9c1.8-.5 3.1-2.1 3.1-4 0-2.3-1.8-4.1-4.1-4.1s-4.1 1.8-4.1 4.1c0 1.9 1.3 3.5 3.1 4v176.9l33.1 35.4H49.2l-10.7-10.7c.4-.6.6-1.3.6-2.1 0-2.3-1.8-4.1-4.1-4.1s-4.1 1.8-4.1 4.1 1.8 4.1 4.1 4.1c.8 0 1.5-.2 2.1-.6l11.3 11.3h16.3l6.7 7.2H43l-17.2-17.2c.7-.7 1.1-1.7 1.1-2.8 0-2.3-1.8-4.1-4.1-4.1s-4.1 1.8-4.1 4.1 1.8 4.1 4.1 4.1c.4 0 .9-.1 1.3-.2l18.1 18.1h31.1l8 8.6v47.5L44.7 350l-5.2 5.2V386l-11.8 11.8v50.8l11.8 11.8V570c-1.8.4-3.1 2.1-3.1 4 0 2.3 1.8 4.1 4.1 4.1s4.1-1.8 4.1-4.1c0-1.9-1.3-3.5-3.1-4v-31.5l5.9 5.9v42.4c-1.8.5-3.1 2.1-3.1 4 0 2.3 1.8 4.1 4.1 4.1s4.1-1.8 4.1-4.1c0-1.9-1.3-3.5-3.1-4v-43.2l-7.9-7.9v-75.4l.3-.3-.3-.3V356.1l6.1-6.1 33.8-33.8v12.4L59.9 350l-10.3 10.3v149.2l7.1 7.1v36.2l19.7 19.7H117c.4 1.8 2.1 3.1 4 3.1 2.3 0 4.1-1.8 4.1-4.1s-1.8-4.1-4.1-4.1c-1.9 0-3.5 1.3-4 3.1H92.7l16.5-16.5h5.3l10.2 10.2h41.5c.5 1.6 2.1 2.9 3.9 2.9 2.3 0 4.1-1.8 4.1-4.1s-1.8-4.1-4.1-4.1c-2 0-3.7 1.5-4 3.4h-40.6l-8.2-8.2h23.8c.4 1.8 2.1 3.1 4 3.1 2.3 0 4.1-1.8 4.1-4.1s-1.8-4.1-4.1-4.1c-1.9 0-3.5 1.3-4 3.1h-32.8l-18.5 18.5H77.3l-18.5-18.5v-33.4l15.6 15.6h12.8l5.8 5.8h79.3c.4 1.9 2 3.3 4 3.3 2.3 0 4.1-1.8 4.1-4.1s-1.8-4.2-4-4.2zm-58.5-63.3c0 1.2-.9 2.1-2.1 2.1s-2.1-.9-2.1-2.1.9-2.1 2.1-2.1 2.1.9 2.1 2.1zm27.7-72.7c0 1.2-.9 2.1-2.1 2.1s-2.1-.9-2.1-2.1.9-2.1 2.1-2.1 2.1.9 2.1 2.1zm-10.3-29.9c0 1.2-.9 2.1-2.1 2.1s-2.1-.9-2.1-2.1.9-2.1 2.1-2.1 2.1 1 2.1 2.1zm8.9-25c1.2 0 2.1.9 2.1 2.1s-.9 2.1-2.1 2.1-2.1-.9-2.1-2.1 1-2.1 2.1-2.1zM138 140c1.2 0 2.1.9 2.1 2.1s-.9 2.1-2.1 2.1-2.1-.9-2.1-2.1.9-2.1 2.1-2.1zm6.2-18c1.2 0 2.1.9 2.1 2.1s-.9 2.1-2.1 2.1-2.1-.9-2.1-2.1.9-2.1 2.1-2.1zm-50.4-16c0-1.2.9-2.1 2.1-2.1s2.1.9 2.1 2.1-.9 2.1-2.1 2.1-2.1-.9-2.1-2.1zM133 92.9c1.2 0 2.1.9 2.1 2.1s-.9 2.1-2.1 2.1-2.1-.9-2.1-2.1 1-2.1 2.1-2.1zm-65.8 77.7c0-1.2.9-2.1 2.1-2.1s2.1.9 2.1 2.1-.9 2.1-2.1 2.1-2.1-1-2.1-2.1zM81.7 58.2c1.2 0 2.1.9 2.1 2.1s-.9 2.1-2.1 2.1-2.1-.9-2.1-2.1 1-2.1 2.1-2.1zM48.1 92.9c0-1.2.9-2.1 2.1-2.1s2.1.9 2.1 2.1-.9 2.1-2.1 2.1-2.1-.9-2.1-2.1zm11 47c0-1.2.9-2.1 2.1-2.1s2.1.9 2.1 2.1-.9 2.1-2.1 2.1-2.1-.9-2.1-2.1zM50.2 32.6c1.2 0 2.1.9 2.1 2.1s-.9 2.1-2.1 2.1-2.1-.9-2.1-2.1 1-2.1 2.1-2.1zM34.7 13.1c0-1.2.9-2.1 2.1-2.1s2.1.9 2.1 2.1-.9 2.1-2.1 2.1-2.1-.9-2.1-2.1zm-6.2 16.8c0-1.2.9-2.1 2.1-2.1s2.1.9 2.1 2.1-.9 2.1-2.1 2.1-2.1-.9-2.1-2.1zM33 233.3c0-1.2.9-2.1 2.1-2.1s2.1.9 2.1 2.1-.9 2.1-2.1 2.1-2.1-.9-2.1-2.1zm-12.3 2c0-1.2.9-2.1 2.1-2.1s2.1.9 2.1 2.1-.9 2.1-2.1 2.1-2.1-.9-2.1-2.1zm29.8 355.5c0 1.2-.9 2.1-2.1 2.1s-2.1-.9-2.1-2.1.9-2.1 2.1-2.1 2.1.9 2.1 2.1zm-7.9-16.9c0 1.2-.9 2.1-2.1 2.1s-2.1-.9-2.1-2.1.9-2.1 2.1-2.1 2.1 1 2.1 2.1zm-13-126v-49.2l9.8-9.8v68.8l-9.8-9.8zm140.5 112.8c1.2 0 2.1.9 2.1 2.1s-.9 2.1-2.1 2.1-2.1-.9-2.1-2.1 1-2.1 2.1-2.1zm-24.9-9.9c1.2 0 2.1.9 2.1 2.1s-.9 2.1-2.1 2.1-2.1-.9-2.1-2.1.9-2.1 2.1-2.1zM121 569.3c1.2 0 2.1.9 2.1 2.1s-.9 2.1-2.1 2.1-2.1-.9-2.1-2.1 1-2.1 2.1-2.1zM58 442v52.7l-6.3 6.3v-65.3L58 442zm20 26.7c0 1.2-.9 2.1-2.1 2.1s-2.1-.9-2.1-2.1.9-2.1 2.1-2.1 2.1.9 2.1 2.1zm41-13.6c0 1.2-.9 2.1-2.1 2.1s-2.1-.9-2.1-2.1.9-2.1 2.1-2.1 2.1.9 2.1 2.1zM62.7 350l4.3-4.3 4.3 4.3 27 27v58.3H76.9v-16.2l-25.3-25.3V361l11.1-11zM90 534.2h50.5l3 3.8H93.9l-3.9-3.8zm86.4 7.1c-1.2 0-2.1-.9-2.1-2.1s.9-2.1 2.1-2.1 2.1.9 2.1 2.1-1 2.1-2.1 2.1z" />
</svg>
