<svg xmlns="http://www.w3.org/2000/svg" viewBox="0 0 176.5 122">
  <path d="M5.1 33.9v24.3l6.8 6.8v54.3h58.9L83.1 107h8.1l8.5-8.5h16c.4 1.8 2.1 3.1 4 3.1 2.3 0 4.1-1.8 4.1-4.1s-1.8-4.1-4.1-4.1c-1.9 0-3.5 1.3-4 3.1H99l-8.5 8.5h-5.3L99 91.1h31.5c.4 1.9 2 3.3 4 3.3 2.3 0 4.1-1.8 4.1-4.1s-1.8-4.1-4.1-4.1c-1.8 0-3.4 1.2-3.9 2.9H98.2L70 117.3H49.8l38-38H99l11.6-11.6h16.9c.4 1.8 2.1 3.1 4 3.1 2.3 0 4.1-1.8 4.1-4.1s-1.8-4.1-4.1-4.1c-1.9 0-3.5 1.3-4 3.1h-17.7L98.2 77.3h-8.4l16.5-16.5h36c.6 1.6 2.1 2.7 3.8 2.7 2.3 0 4.1-1.8 4.1-4.1s-1.8-4.1-4.1-4.1c-2.1 0-3.7 1.5-4 3.5h-18.4L140.4 42h26.4c.4 1.8 2.1 3.1 4 3.1 2.3 0 4.1-1.8 4.1-4.1s-1.8-4.1-4.1-4.1c-1.9 0-3.5 1.3-4 3.1h-27.2L121 58.8h-15.5L47 117.3H15.3l28.5-28.5H56L83.8 61c.6.3 1.3.5 2 .5 2.3 0 4.1-1.8 4.1-4.1s-1.8-4.1-4.1-4.1-4.1 1.8-4.1 4.1c0 .8.2 1.6.7 2.2L55.2 86.9h-9.4L91.6 41c.6.3 1.2.4 1.8.4 2.3 0 4.1-1.8 4.1-4.1s-1.8-4.1-4.1-4.1-4.1 1.8-4.1 4.1c0 .9.3 1.7.8 2.4l-25 25V44.2l5.9-5.9h9.6l17.8-17.8c.5.3 1.2.4 1.8.4 2.3 0 4.1-1.8 4.1-4.1s-1.8-4.1-4.1-4.1-4.1 1.8-4.1 4.1c0 .9.3 1.7.8 2.4L79.8 36.4H73L99.7 9.7c.6.3 1.3.5 2 .5 2.3 0 4.1-1.8 4.1-4.1S103.9 2 101.7 2s-4.1 1.8-4.1 4.1c0 .8.2 1.6.7 2.2L63.1 43.4v23.3L13.8 116V80.1l40.4-40.4V10.9c1.7-.5 3-2.1 3-3.9 0-2.3-1.8-4.1-4.1-4.1S49 4.7 49 7c0 2 1.4 3.6 3.2 4v27.9L35.9 55.3v-6.7l10.3-10.3v-16c1.8-.4 3.1-2.1 3.1-4 0-2.3-1.8-4.1-4.1-4.1s-4.1 1.8-4.1 4.1c0 1.9 1.3 3.5 3.1 4v15.2L33.9 47.8v9.5l-20 20V41.9c1.8-.4 3.1-2.1 3.1-4 0-2.3-1.8-4.1-4.1-4.1S8.8 35.7 8.8 38c0 1.9 1.3 3.5 3.1 4v20.2l-4.8-4.8V33.9c1.8-.4 3.1-2.1 3.1-4 0-2.3-1.8-4.1-4.1-4.1S2 27.7 2 29.9c0 2 1.3 3.6 3.1 4zm114.6 61.5c1.2 0 2.1.9 2.1 2.1s-.9 2.1-2.1 2.1c-1 0-1.8-.7-2-1.5V97c.3-1 1.1-1.6 2-1.6zm14.9-7.2c1.2 0 2.1.9 2.1 2.1s-.9 2.1-2.1 2.1-2.1-.9-2.1-2.1.9-2.1 2.1-2.1zm-3.1-23.6c1.2 0 2.1.9 2.1 2.1s-.9 2.1-2.1 2.1-2.1-.9-2.1-2.1.9-2.1 2.1-2.1zm14.7-7.3c1.2 0 2.1.9 2.1 2.1s-.9 2.1-2.1 2.1-2.1-.9-2.1-2.1.9-2.1 2.1-2.1zM170.9 39c1.2 0 2.1.9 2.1 2.1s-.9 2.1-2.1 2.1-2.1-.9-2.1-2.1 1-2.1 2.1-2.1zM85.8 55.4c1.2 0 2.1.9 2.1 2.1s-.9 2.1-2.1 2.1-2.1-.9-2.1-2.1 1-2.1 2.1-2.1zm7.6-20.1c1.2 0 2.1.9 2.1 2.1s-.9 2.1-2.1 2.1-2.1-.9-2.1-2.1 1-2.1 2.1-2.1zm6.8-20.5c1.2 0 2.1.9 2.1 2.1s-.9 2.1-2.1 2.1-2.1-.9-2.1-2.1 1-2.1 2.1-2.1zM101.7 4c1.2 0 2.1.9 2.1 2.1s-.9 2.1-2.1 2.1-2.1-.9-2.1-2.1.9-2.1 2.1-2.1zM51.1 6.9c0-1.2.9-2.1 2.1-2.1s2.1.9 2.1 2.1S54.4 9 53.2 9s-2.1-.9-2.1-2.1zm-8 11.4c0-1.2.9-2.1 2.1-2.1s2.1.9 2.1 2.1-.9 2.1-2.1 2.1-2.1-1-2.1-2.1zM10.8 38c0-1.2.9-2.1 2.1-2.1s2.1.9 2.1 2.1-.9 2.1-2.1 2.1-2.1-1-2.1-2.1zM6.1 27.8c1.2 0 2.1.9 2.1 2.1S7.3 32 6.1 32 4 31.1 4 29.9s.9-2.1 2.1-2.1z" fill="#494949"/>
</svg>
