<svg xmlns="http://www.w3.org/2000/svg" viewBox="0 0 256 200">
  <path d="M251.6 179.1l-9.2 8.9h-19.8l8.3-8.3-.9-.9-9.2 9.2H20.6l-2.4-2.4 4.7-4.7h41c.3 1.1 1.3 2 2.5 2 1.4 0 2.6-1.2 2.6-2.6 0-1.4-1.2-2.6-2.6-2.6-1.2 0-2.2.8-2.5 2H22.4l-5.1 5.1-6.8-6.8 15.2-15.2v-49.5c1.1-.3 2-1.3 2-2.5 0-1.4-1.2-2.6-2.6-2.6s-2.6 1.2-2.6 2.6c0 1.2.8 2.2 2 2.5v49l-14.2 14.2v-5.1l11.3-11.3v-37.9c1.1-.3 2-1.3 2-2.5 0-1.4-1.2-2.6-2.6-2.6-1.4 0-2.6 1.2-2.6 2.6 0 1.2.8 2.2 2 2.5v37.3l-10.1 10.1v-68.7l8.4-8.4h7.6l8.4 8.4h14.1l8.4-8.4h11.5l13.6-13.6c.3.2.7.3 1.1.3 1.4 0 2.6-1.2 2.6-2.6S84.8 74 83.4 74s-2.6 1.2-2.6 2.6c0 .6.2 1.1.5 1.5l-13.2 13h-9.7l24.3-24.3c.3.2.7.3 1.1.3 1.4 0 2.6-1.2 2.6-2.6 0-1.4-1.2-2.6-2.6-2.6s-2.6 1.2-2.6 2.6c0 .6.2 1.1.5 1.5L56.6 91.1h-.5v.5l-7.8 7.8H35.2l-7.1-7.1h4.1l11-11 2.2-.7 9.4-9.4h5.7l11.4-11.4V54l4.6-4.6v-8.1l5.6-5.6V9c1.1-.3 2-1.3 2-2.5 0-1.4-1.2-2.6-2.6-2.6s-2.6 1.2-2.6 2.6c0 1.2.8 2.2 2 2.5v26.3l-4.3 4.3V29.3L51.8 4.7h-7.6V6h7.1l23.9 23.9V49L44.8 79.4V66.1l22.7-22.7v-10c1.1-.3 2-1.3 2-2.5 0-1.4-1.2-2.6-2.6-2.6s-2.6 1.2-2.6 2.6c0 1.2.8 2.2 2 2.5v9.5L44.8 64.3v-9l10-10V23.9c1.1-.3 2-1.3 2-2.5 0-1.4-1.2-2.6-2.6-2.6s-2.6 1.2-2.6 2.6c0 1.2.8 2.2 2 2.5v20.9l-8.7 8.7V20.7h-1.3v58.5l-8.1 8.1-6.8-6.8H18.1c-.3-1.1-1.3-2-2.5-2-1.4 0-2.6 1.2-2.6 2.6s1.2 2.6 2.6 2.6c1.2 0 2.2-.8 2.5-2h10.1l6.4 6.4-2.9 2.9H18.1l-9.2 9.2v3.6l-5.4 5.4v49l5.4 5.4v14.6L20 189.3h25.5l9.3 9.3h59.1l9.3-9.3H243l9.5-9.3-.9-.9zm-185.2-.2c.7 0 1.3.6 1.3 1.3 0 .7-.6 1.3-1.3 1.3s-1.3-.6-1.3-1.3c0-.7.6-1.3 1.3-1.3zm-42.8-68.2c0-.7.6-1.3 1.3-1.3s1.3.6 1.3 1.3c0 .7-.6 1.3-1.3 1.3s-1.3-.5-1.3-1.3zm-4.1 8.8c0-.7.6-1.3 1.3-1.3.7 0 1.3.6 1.3 1.3s-.6 1.3-1.3 1.3c-.7.1-1.3-.5-1.3-1.3zM83.4 75c.7 0 1.3.6 1.3 1.3s-.6 1.3-1.3 1.3-1.4-.5-1.4-1.2.6-1.4 1.4-1.4zm.4-11.9c.7 0 1.3.6 1.3 1.3 0 .7-.6 1.3-1.3 1.3s-1.3-.6-1.3-1.3c0-.7.6-1.3 1.3-1.3zM80.1 6.5c0-.7.6-1.3 1.3-1.3s1.3.6 1.3 1.3-.6 1.3-1.3 1.3-1.3-.6-1.3-1.3zm-9.5 52.9L60 70h-4l14.6-14.6v4zm-5.1-28.6c0-.7.6-1.3 1.3-1.3s1.3.6 1.3 1.3-.6 1.3-1.3 1.3-1.3-.5-1.3-1.3zm-12.7-9.4c0-.7.6-1.3 1.3-1.3.7 0 1.3.6 1.3 1.3s-.6 1.3-1.3 1.3c-.7 0-1.3-.6-1.3-1.3zM15.5 82.5c-.7 0-1.3-.6-1.3-1.3s.6-1.3 1.3-1.3c.7 0 1.3.6 1.3 1.3s-.5 1.3-1.3 1.3zM4.8 157.7v-47.9l4.1-4.1v56.1l-4.1-4.1zm108.6 39.6H55.3l-8-8h74.1l-8 8z" fill="#494949"/>
</svg>
