<svg xmlns="http://www.w3.org/2000/svg" viewBox="0 0 278.3 105.7">
  <path d="M271.8 20.3c-2.3 0-4.2 1.7-4.5 4h-91.8L190 9.9h47.1c.5 2 2.3 3.4 4.4 3.4 2.5 0 4.5-2 4.5-4.5s-2-4.5-4.5-4.5c-2.1 0-3.9 1.5-4.4 3.4h-48l-16.6 16.6h-65.8L93.4 37.6V22.9l9.3-9.3h29.6c.6 1.8 2.3 3.1 4.2 3.1 2.5 0 4.5-2 4.5-4.5s-2-4.5-4.5-4.5c-2.2 0-4.1 1.6-4.4 3.8h-30.3L91.2 22v17.7l-22.9 23H53.8l20.9-20.9c.8.7 1.8 1.1 3 1.1 2.5 0 4.5-2 4.5-4.5s-2-4.5-4.5-4.5-4.5 2-4.5 4.5c0 .5.1 1.1.3 1.5l-9.3 9.3V31l5.9-5.9c.7.4 1.5.7 2.3.7 2.5 0 4.5-2 4.5-4.5s-2-4.5-4.5-4.5-4.5 2-4.5 4.5c0 .8.2 1.6.6 2.3L62 30.1v21.4h.1L50.7 62.7H37.6L5.4 94.9 7 96.4l31.5-31.5H155l29 29 1.6-1.6-29.7-29.7H112l16.4-16.4h27.2l9 9H211c.5 2 2.3 3.4 4.4 3.4 2.5 0 4.5-2 4.5-4.5s-2-4.5-4.5-4.5c-2.1 0-3.9 1.5-4.4 3.4h-45.5l-6.8-6.8h32c.5 1.9 2.3 3.2 4.3 3.2 2.5 0 4.5-2 4.5-4.5s-2-4.5-4.5-4.5c-2.2 0-4 1.5-4.4 3.6h-63.1l-18.6 18.6H71.4l10.1-10.1h18.3L113.5 39h22.1c.5 2 2.3 3.4 4.4 3.4 2.5 0 4.5-2 4.5-4.5s-2-4.5-4.5-4.5c-2.1 0-3.9 1.5-4.4 3.4h-23L98.9 50.4H83.7l23.9-23.9h103.9l5.9 5.7h23.1l6.5-5.7h20.6c.7 1.7 2.3 2.8 4.2 2.8 2.5 0 4.5-2 4.5-4.5s-2-4.5-4.5-4.5zM241.5 6.5c1.3 0 2.3 1 2.3 2.3s-1 2.3-2.3 2.3-2.3-1-2.3-2.3 1-2.3 2.3-2.3zm-105 3.4c1.3 0 2.3 1 2.3 2.3s-1 2.3-2.3 2.3c-1.3 0-2.3-1-2.3-2.3s1-2.3 2.3-2.3zM72.3 19c1.3 0 2.3 1 2.3 2.3 0 1.3-1 2.3-2.3 2.3s-2.3-1-2.3-2.3c0-1.3 1-2.3 2.3-2.3zm5.3 17.2c1.3 0 2.3 1 2.3 2.3s-1 2.3-2.3 2.3c-1.3 0-2.3-1-2.3-2.3s1.1-2.3 2.3-2.3zm137.8 15.7c1.3 0 2.3 1 2.3 2.3 0 1.3-1 2.3-2.3 2.3-1.1 0-1.9-.7-2.2-1.7v-1.2c.3-1 1.2-1.7 2.2-1.7zM195 42.7c1.3 0 2.3 1 2.3 2.3s-1 2.3-2.3 2.3c-1.3 0-2.3-1-2.3-2.3s1.1-2.3 2.3-2.3zm-55.1-7.1c1.3 0 2.3 1 2.3 2.3 0 1.3-1 2.3-2.3 2.3s-2.3-1-2.3-2.3c0-1.3 1-2.3 2.3-2.3zm99.9-5.6h-21.5l-4-3.5h29.4l-3.9 3.5zm32-2.9c-1.3 0-2.3-1-2.3-2.3 0-1.3 1-2.3 2.3-2.3s2.3 1 2.3 2.3c0 1.3-1 2.3-2.3 2.3z" />
</svg>
