<svg xmlns="http://www.w3.org/2000/svg" viewBox="0 0 256 200">
  <path class="st0" d="M199.4,188H20.6l-2.4-2.4l4.7-4.7h41c0.3,1.1,1.3,2,2.5,2c1.4,0,2.6-1.2,2.6-2.6c0-1.4-1.2-2.6-2.6-2.6 c-1.2,0-2.2,0.8-2.5,2H22.4l-5.1,5.1l-6.8-6.8l15.2-15.2v-49.5c1.1-0.3,2-1.3,2-2.5c0-1.4-1.2-2.6-2.6-2.6s-2.6,1.2-2.6,2.6 c0,1.2,0.8,2.2,2,2.5v49l-14.2,14.2v-5.1l11.3-11.3v-37.9c1.1-0.3,2-1.3,2-2.5c0-1.4-1.2-2.6-2.6-2.6s-2.6,1.2-2.6,2.6 c0,1.2,0.8,2.2,2,2.5v37.3l-10.1,10.1v-68.7l8.4-8.4h7.6l8.4,8.4h14.1l8.4-8.4h11.5l13.6-13.6c0.3,0.2,0.7,0.3,1.1,0.3 c1.4,0,2.6-1.2,2.6-2.6S84.8,74,83.4,74s-2.6,1.2-2.6,2.6c0,0.6,0.2,1.1,0.5,1.5l-13.2,13h-9.7l24.3-24.3c0.3,0.2,0.7,0.3,1.1,0.3 c1.4,0,2.6-1.2,2.6-2.6s-1.2-2.6-2.6-2.6s-2.6,1.2-2.6,2.6c0,0.6,0.2,1.1,0.5,1.5L56.6,91.1h-0.5v0.5l-7.8,7.8H35.2l-7.1-7.1h4.1 l11-11l2.2-0.7l9.4-9.4h5.7l11.4-11.4V54l4.6-4.6v-8.1l5.6-5.6V9c1.1-0.3,2-1.3,2-2.5c0-1.4-1.2-2.6-2.6-2.6s-2.6,1.2-2.6,2.6 c0,1.2,0.8,2.2,2,2.5v26.3l-4.3,4.3V29.3L51.8,4.7h-7.6V6h7.1l23.9,23.9V49L44.8,79.4V66.1l22.7-22.7v-10c1.1-0.3,2-1.3,2-2.5 c0-1.4-1.2-2.6-2.6-2.6s-2.6,1.2-2.6,2.6c0,1.2,0.8,2.2,2,2.5v9.5L44.8,64.3v-9l10-10V23.9c1.1-0.3,2-1.3,2-2.5 c0-1.4-1.2-2.6-2.6-2.6s-2.6,1.2-2.6,2.6c0,1.2,0.8,2.2,2,2.5v20.9l-8.7,8.7V20.7h-1.3v58.5l-8.1,8.1l-6.8-6.8H18.1 c-0.3-1.1-1.3-2-2.5-2c-1.4,0-2.6,1.2-2.6,2.6s1.2,2.6,2.6,2.6c1.2,0,2.2-0.8,2.5-2h10.1l6.4,6.4L31.7,91H18.1l-9.2,9.2v3.6 l-5.4,5.4v49l5.4,5.4v14.6L20,189.3h25.5l9.3,9.3h59.1l9.3-9.3h76.1L199.4,188z M66.4,178.9c0.7,0,1.3,0.6,1.3,1.3s-0.6,1.3-1.3,1.3 s-1.3-0.6-1.3-1.3S65.7,178.9,66.4,178.9z M23.6,110.7c0-0.7,0.6-1.3,1.3-1.3s1.3,0.6,1.3,1.3c0,0.7-0.6,1.3-1.3,1.3 S23.6,111.5,23.6,110.7z M19.5,119.5c0-0.7,0.6-1.3,1.3-1.3c0.7,0,1.3,0.6,1.3,1.3s-0.6,1.3-1.3,1.3 C20.1,120.9,19.5,120.3,19.5,119.5z M83.4,75c0.7,0,1.3,0.6,1.3,1.3s-0.6,1.3-1.3,1.3S82,77.1,82,76.4S82.6,75,83.4,75z M83.8,63.1 c0.7,0,1.3,0.6,1.3,1.3c0,0.7-0.6,1.3-1.3,1.3s-1.3-0.6-1.3-1.3C82.5,63.7,83.1,63.1,83.8,63.1z M80.1,6.5c0-0.7,0.6-1.3,1.3-1.3 s1.3,0.6,1.3,1.3s-0.6,1.3-1.3,1.3S80.1,7.2,80.1,6.5z M70.6,59.4L60,70h-4l14.6-14.6V59.4z M65.5,30.8c0-0.7,0.6-1.3,1.3-1.3 s1.3,0.6,1.3,1.3s-0.6,1.3-1.3,1.3S65.5,31.6,65.5,30.8z M52.8,21.4c0-0.7,0.6-1.3,1.3-1.3s1.3,0.6,1.3,1.3s-0.6,1.3-1.3,1.3 S52.8,22.1,52.8,21.4z M15.5,82.5c-0.7,0-1.3-0.6-1.3-1.3s0.6-1.3,1.3-1.3c0.7,0,1.3,0.6,1.3,1.3S16.3,82.5,15.5,82.5z M4.8,157.7 v-47.9l4.1-4.1v56.1L4.8,157.7L4.8,157.7z M113.4,197.3H55.3l-8-8h74.1C121.4,189.3,113.4,197.3,113.4,197.3z M199.3,189.3 c0.3,1.2,1.3,2.1,2.5,2.1c1.4,0,2.6-1.3,2.6-2.8c0-1.5-1.2-2.8-2.6-2.8c-1.2,0-2.2,0.9-2.5,2.1 M201.7,187.3c0.7,0,1.3,0.6,1.3,1.3 s-0.6,1.3-1.3,1.3c-0.7,0-1.3-0.6-1.3-1.3S201,187.3,201.7,187.3z" />
</svg>
