<svg xmlns="http://www.w3.org/2000/svg" viewBox="0 0 400 400">
  <path d="M208 73l8.3 36.7c19.2 6.7 33.1 24.9 33.1 46.4v.5c0 4.2-.5 8.3-1.5 12.2l44.7 31.2c25.9-42.2 51.9-84.3 77.8-126.5-54.2-.2-108.3-.3-162.4-.5zm29.3 115.8c-9 10.3-22.2 16.9-37 16.9-14.9 0-28.3-6.7-37.3-17.2l-32 48L199.7 347l65.8-110.5-28.2-47.7zm-86.4-32.2c0-21.3 13.6-39.5 32.7-46.3L192 73H29.7c25.9 42.3 51.9 84.7 77.8 127l44.9-31.4c-1-3.8-1.5-7.9-1.5-12z" fill="#818181"/>
  <circle cx="200.3" cy="156.6" r="30.3" fill="#f9690e" class="active" />
</svg>
