<svg xmlns="http://www.w3.org/2000/svg" viewBox="0 0 400 400">
  <path d="M69.5 24.4c4.5 48.9 9 97.8 13.6 146.7 24.9-5.3 49.9-10.5 74.8-15.8-1.5-40.3-2.9-80.6-4.4-120.9-27.9-3.3-56-6.6-84-10z" fill="#f9690e"/>
  <path d="M163.4 307.1c-1.6-43-3.1-86-4.7-129-24.7 3.2-49.4 6.3-74.1 9.5 4.9 52.8 9.8 105.6 14.7 158.5 21.5-.6 43.3-1 65.3-1.2l-1.2-37.8zm84.7-33.2l-67.5 19.5c.1 17.1.3 34.2.4 51.3 13.9 0 55.5-.1 69.3-.2 8.8 0 32.5-.1 49.4-.1l-51.6-70.5zm82.4-218.6c-21.7-2.9-43.5-5.7-65.2-8.6-2 72.3-4 144.6-6.1 217l56.3 63.9c-.1.1 9.6-175.9 15-272.3z" fill="#818181"/>
</svg>
